<?xml version="1.0" standalone="no"?>
<!DOCTYPE svg PUBLIC "-//W3C//DTD SVG 20010904//EN"
 "http://www.w3.org/TR/2001/REC-SVG-20010904/DTD/svg10.dtd">
<svg version="1.0" xmlns="http://www.w3.org/2000/svg"
 width="800.000000pt" height="264.000000pt" viewBox="0 0 800.000000 264.000000"
 preserveAspectRatio="xMidYMid meet">

<g transform="translate(0.000000,264.000000) scale(0.100000,-0.100000)"
fill="#000000" stroke="none">
<path d="M4605 2615 c-240 -55 -440 -223 -528 -445 -39 -99 -49 -154 -49 -275
-1 -90 4 -125 25 -196 119 -395 526 -611 922 -489 103 32 200 90 290 175 42
38 125 156 151 213 91 199 85 450 -15 638 -21 39 -47 81 -57 94 -114 140 -240
229 -388 271 -92 27 -267 34 -351 14z m2 -41 c-3 -3 -12 -4 -19 -1 -8 3 -5 6
6 6 11 1 17 -2 13 -5z m-72 -14 c14 -5 24 -7 21 -2 -7 12 103 5 172 -12 35 -8
75 -23 89 -33 14 -10 34 -23 44 -29 20 -11 85 -79 106 -111 74 -108 84 -307
23 -425 -34 -66 -172 -188 -212 -188 -10 0 -18 -4 -18 -10 0 -19 -166 -34
-222 -20 -126 33 -248 126 -282 213 -10 26 -25 51 -33 56 -13 7 -17 32 -19
129 -2 71 1 124 6 127 6 4 10 19 10 36 0 16 5 29 13 29 8 0 7 3 -2 9 -12 8 -9
11 13 17 20 5 29 14 33 37 4 17 14 32 25 34 10 3 18 11 18 17 0 6 24 26 53 45
28 18 44 31 35 27 -33 -10 -18 4 19 19 29 12 38 13 45 3 6 -11 8 -10 8 0 0 10
19 40 27 42 1 0 13 -4 28 -10z"/>
<path d="M2020 1804 c-439 -30 -804 -116 -1170 -276 -300 -131 -460 -242 -738
-512 -58 -57 -101 -107 -100 -115 7 -35 40 -21 116 46 127 114 257 219 329
266 129 84 322 173 525 241 313 105 583 150 973 162 539 17 1020 -106 1545
-395 74 -41 151 -83 170 -93 88 -48 200 26 200 131 0 60 -28 98 -104 138 -412
218 -754 331 -1163 383 -150 19 -465 32 -583 24z"/>
<path d="M7850 1263 c-210 -190 -328 -271 -533 -368 -276 -130 -560 -208 -952
-262 -186 -25 -603 -25 -770 0 -426 65 -795 198 -1195 432 -96 56 -125 62
-182 37 -83 -36 -113 -131 -65 -203 16 -25 52 -50 132 -91 455 -236 850 -348
1336 -379 759 -49 1615 203 2077 610 181 160 296 277 289 294 -12 31 -42 16
-137 -70z"/>
<path d="M3138 963 c-9 -10 -21 -28 -27 -40 -11 -21 -9 -23 14 -23 15 0 51 18
82 40 l56 40 -55 0 c-40 0 -59 -5 -70 -17z"/>
<path d="M504 963 c-12 -2 -36 -16 -54 -32 -29 -24 -34 -35 -38 -86 -7 -81 12
-110 104 -170 79 -50 94 -68 94 -109 0 -37 -10 -56 -31 -56 -24 0 -39 29 -39
74 l0 36 -65 0 -64 0 6 -52 c7 -69 25 -96 81 -120 81 -36 207 -7 232 53 7 17
11 56 8 94 -5 76 -28 107 -118 157 -30 17 -61 38 -67 46 -18 21 -16 67 2 82
24 20 45 4 45 -35 l0 -35 66 0 67 0 -5 50 c-6 56 -29 83 -88 100 -34 10 -95
11 -136 3z"/>
<path d="M1688 700 l-3 -260 63 0 62 0 0 168 c0 93 4 160 9 152 4 -8 19 -84
32 -167 l23 -153 42 0 42 0 11 63 c5 34 15 103 22 152 7 50 16 97 20 105 7 13
15 -247 10 -302 -2 -15 7 -18 58 -18 l61 0 0 260 0 260 -93 0 -93 0 -13 -102
c-20 -157 -26 -159 -47 -20 l-19 122 -92 0 -92 0 -3 -260z"/>
<path d="M2867 913 c-2 -5 -3 -17 -1 -28 2 -11 -4 -26 -13 -32 -23 -18 -24
-52 -1 -64 16 -9 18 -24 18 -158 0 -180 2 -183 111 -189 l69 -4 0 30 c0 24 -5
31 -22 34 -22 3 -23 6 -26 146 -2 137 -2 142 18 142 16 0 20 7 20 30 0 23 -4
30 -20 30 -16 0 -20 7 -20 35 l0 35 -64 0 c-36 0 -67 -3 -69 -7z"/>
<path d="M876 855 c-55 -19 -75 -43 -82 -97 -6 -45 -6 -46 22 -50 16 -2 46 -1
67 1 37 3 37 3 37 48 0 40 2 44 23 41 18 -2 23 -10 25 -41 4 -49 -5 -60 -79
-87 -82 -30 -99 -48 -99 -109 0 -62 13 -96 41 -111 31 -17 85 -15 114 4 30 20
35 20 35 1 0 -12 14 -15 66 -15 l67 0 -5 176 c-4 155 -7 178 -25 202 -36 48
-129 65 -207 37z m92 -282 c-3 -60 -5 -68 -23 -68 -17 0 -20 8 -23 49 -2 35 2
53 14 67 29 32 35 22 32 -48z"/>
<path d="M1342 850 c-39 -24 -43 -25 -36 -5 5 12 -6 15 -65 15 l-71 0 0 -210
0 -210 65 0 65 0 0 158 c0 183 4 204 34 200 20 -3 21 -8 24 -180 l2 -178 65 0
65 0 0 190 0 191 -26 24 c-33 31 -77 32 -122 5z"/>
<path d="M2299 861 c-65 -20 -99 -63 -99 -125 0 -21 5 -25 33 -28 17 -2 46 -1
64 1 30 3 32 6 35 45 2 34 7 42 25 44 23 3 31 -13 31 -65 1 -28 -7 -33 -94
-66 -51 -20 -74 -35 -83 -53 -26 -57 -2 -156 41 -170 36 -11 89 -6 108 11 21
19 30 19 30 0 0 -12 14 -15 65 -15 l65 0 0 179 c0 174 -1 179 -24 204 -37 40
-129 58 -197 38z m91 -280 c0 -61 -16 -89 -45 -77 -20 7 -20 84 1 114 28 41
44 28 44 -37z"/>
<path d="M2775 860 c-12 -4 -27 -15 -34 -24 -19 -22 -34 -20 -28 4 5 19 0 20
-64 20 l-69 0 0 -210 0 -210 70 0 70 0 0 129 c0 137 2 144 53 156 26 7 27 9
27 76 0 38 -1 69 -2 68 -2 0 -12 -4 -23 -9z"/>
<path d="M3474 860 c-12 -5 -25 -13 -29 -19 -9 -16 -25 -13 -25 4 0 12 -14 15
-70 15 l-70 0 0 -210 0 -210 70 0 70 0 0 180 0 180 25 0 25 0 0 -149 c0 -82 3
-163 6 -180 6 -31 7 -31 71 -31 l65 0 -4 191 -3 191 -28 24 c-29 25 -65 30
-103 14z"/>
<path d="M3080 650 l0 -210 70 0 70 0 0 210 0 210 -70 0 -70 0 0 -210z"/>
<path d="M2594 337 c-80 -54 -103 -158 -54 -244 57 -103 202 -115 285 -23 16
17 16 20 2 20 -9 0 -28 -11 -42 -24 -47 -44 -159 -43 -197 1 -28 32 -48 81
-48 119 0 77 74 154 147 154 34 0 113 -35 113 -50 0 -5 10 -10 22 -10 21 0 21
0 -3 26 -37 40 -73 54 -136 53 -42 0 -67 -6 -89 -22z"/>
<path d="M2910 355 c0 -3 -1 -80 -1 -172 l0 -168 70 -3 c59 -2 71 0 71 13 0
12 -13 15 -60 15 l-60 0 0 160 c0 100 -4 160 -10 160 -5 0 -10 -2 -10 -5z"/>
<path d="M3100 226 c0 -165 7 -190 65 -212 58 -22 107 -7 128 39 20 41 27 299
9 305 -9 3 -12 -31 -13 -125 -1 -70 -4 -139 -8 -153 -10 -35 -55 -55 -100 -44
-49 12 -60 48 -60 202 -1 74 -5 122 -11 122 -6 0 -10 -51 -10 -134z"/>
<path d="M3390 186 l0 -176 43 0 c23 0 59 5 79 11 68 18 87 101 37 155 -20 21
-20 24 -5 46 23 32 20 72 -7 104 -20 23 -34 28 -85 32 l-62 4 0 -176z m124
128 c35 -34 10 -104 -37 -104 -12 0 -32 -3 -44 -6 -22 -6 -23 -4 -23 60 l0 66
44 0 c27 0 51 -6 60 -16z m14 -154 c28 -26 29 -73 2 -100 -15 -15 -33 -20 -70
-20 l-50 0 0 70 0 70 48 0 c35 0 54 -6 70 -20z"/>
</g>
</svg>
